<svg xmlns="http://www.w3.org/2000/svg" version="1.1" xmlns:xlink="http://www.w3.org/1999/xlink" xmlns:svgjs="http://svgjs.dev/svgjs" width="1000" height="1000" viewBox="0 0 1000 1000"><rect width="1000" height="1000" fill="#528265"></rect><g transform="matrix(0.7,0,0,0.7,150.0994213445099,263.59157894736836)"><svg viewBox="0 0 365 247" data-background-color="#528265" preserveAspectRatio="xMidYMid meet" height="676" width="1000" xmlns="http://www.w3.org/2000/svg" xmlns:xlink="http://www.w3.org/1999/xlink"><g id="tight-bounds" transform="matrix(1,0,0,1,-0.051841129637296035,-0.09999999999999432)"><svg viewBox="0 0 365.1036822592746 247.2" height="247.2" width="365.1036822592746"><g><svg viewBox="0 0 395.52 267.79391375890816" height="247.2" width="365.1036822592746"><g transform="matrix(1,0,0,1,0,195.92004046522337)"><svg viewBox="0 0 395.52 71.8738732936848" height="71.8738732936848" width="395.52"><g id="textblocktransform"><svg viewBox="0 0 395.52 71.8738732936848" height="71.8738732936848" width="395.52" id="textblock"><g><rect width="75.54432" height="3.527956783012518" y="58.35111751902132" fill="#ffffff" data-fill-palette-color="tertiary"></rect><rect width="75.54432" height="3.527956783012518" y="58.35111751902132" x="319.97568" fill="#ffffff" data-fill-palette-color="tertiary"></rect></g><g><svg viewBox="0 0 395.52 39.12082956660463" height="39.12082956660463" width="395.52"><g transform="matrix(1,0,0,1,0,0)"><svg width="395.52" viewBox="1.2699999809265137 -36.18000030517578 367.260009765625 36.33000183105469" height="39.12082956660463" data-palette-color="#ffffff"><path d="M36.18-19.92Q37.01-21.04 37.82-22.53 38.62-24.02 38.62-25.54L38.62-25.54Q38.62-27.25 37.48-28.34 36.33-29.44 34.72-30.08 33.11-30.71 31.32-30.96 29.54-31.2 28.22-31.2L28.22-31.2Q25.05-31.2 21.8-30.03 18.55-28.86 15.92-26.76 13.28-24.66 11.6-21.78 9.91-18.9 9.91-15.48L9.91-15.48Q9.91-13.43 10.67-11.87 11.43-10.3 12.72-9.18 14.01-8.06 15.67-7.28 17.33-6.49 19.17-6.05 21-5.62 22.85-5.42 24.71-5.22 26.32-5.22L26.32-5.22Q30.32-5.22 34.28-5.91 38.23-6.59 42.14-7.67L42.14-7.67 44.04-2.59Q41.94-1.9 39.62-1.42 37.3-0.93 34.94-0.63 32.57-0.34 30.2-0.2 27.83-0.05 25.63-0.05L25.63-0.05Q23.49-0.05 20.83-0.34 18.16-0.63 15.48-1.29 12.79-1.95 10.23-3.03 7.67-4.1 5.66-5.71 3.66-7.32 2.47-9.47 1.27-11.62 1.27-14.4L1.27-14.4Q1.27-17.77 2.56-20.73 3.86-23.68 6.01-26.1 8.15-28.52 11.04-30.4 13.92-32.28 17.09-33.57 20.26-34.86 23.54-35.52 26.81-36.18 29.83-36.18L29.83-36.18Q32.67-36.18 35.62-35.74 38.57-35.3 40.99-34.06 43.41-32.81 44.95-30.64 46.48-28.47 46.48-24.95L46.48-24.95Q46.48-23.68 46.29-22.41 46.09-21.14 45.7-19.92L45.7-19.92 36.18-19.92ZM88.77 0L79.59 0Q79.64-0.05 79.64-0.2L79.64-0.2Q79.64-0.54 79.37-1.34 79.1-2.15 78.78-3.05 78.46-3.96 78.12-4.76 77.78-5.57 77.63-5.91L77.63-5.91Q72.46-6.1 67.26-6.05 62.06-6.01 56.88-5.81L56.88-5.81Q56.74-5.47 56.39-4.66 56.05-3.86 55.73-2.98 55.42-2.1 55.15-1.32 54.88-0.54 54.88-0.2L54.88-0.2Q54.88-0.05 54.93 0L54.93 0 45.8 0Q46.09-0.34 46.51-1.1 46.92-1.86 47.34-2.71 47.75-3.56 48.14-4.37 48.53-5.18 48.73-5.62L48.73-5.62Q49.27-6.69 50.44-9.08 51.61-11.47 53.05-14.53 54.49-17.58 56.03-20.92 57.57-24.27 58.84-27.25 60.1-30.22 60.91-32.47 61.72-34.72 61.72-35.55L61.72-35.55Q61.72-35.64 61.69-35.77 61.67-35.89 61.57-35.89L61.57-35.89 73-35.89Q72.9-35.89 72.87-35.77 72.85-35.64 72.85-35.55L72.85-35.55Q72.85-34.72 73.65-32.47 74.46-30.22 75.73-27.25 77-24.27 78.54-20.92 80.08-17.58 81.52-14.53 82.96-11.47 84.1-9.08 85.25-6.69 85.79-5.62L85.79-5.62Q85.98-5.18 86.37-4.37 86.77-3.56 87.2-2.71 87.64-1.86 88.06-1.1 88.47-0.34 88.77 0L88.77 0ZM58.88-10.45L60.94-10.4Q68.21-10.4 75.53-10.69L75.53-10.69Q73.53-15.14 71.56-19.48 69.58-23.83 67.28-28.08L67.28-28.08Q64.94-23.78 62.94-19.34 60.94-14.89 58.88-10.45L58.88-10.45ZM127-25.29L127-25.29Q127-22.56 125.39-20.68 123.77-18.8 121.19-17.55 118.6-16.31 115.38-15.6 112.15-14.89 108.95-14.55 105.76-14.21 102.9-14.11 100.04-14.01 98.19-14.01L98.19-14.01Q98.19-12.3 98.16-10.67 98.14-9.03 98.14-7.32L98.14-7.32Q98.14-6.88 98.14-5.81 98.14-4.74 98.19-3.54 98.24-2.34 98.41-1.32 98.58-0.29 98.87 0L98.87 0 90.33 0Q90.62-0.29 90.82-1.9 91.01-3.52 91.13-5.76 91.25-8.01 91.28-10.64 91.3-13.28 91.3-15.65 91.3-18.02 91.28-19.87 91.25-21.73 91.25-22.41L91.25-22.41Q91.25-22.85 91.28-23.97 91.3-25.1 91.28-26.56 91.25-28.03 91.18-29.64 91.11-31.25 90.91-32.62 90.72-33.98 90.38-34.91 90.03-35.84 89.55-35.99L89.55-35.99 96.58-35.99Q97.26-35.99 98.41-36.01 99.56-36.04 100.24-35.94L100.24-35.94Q102.83-35.94 105.37-35.84 107.91-35.74 110.49-35.5L110.49-35.5Q112.01-35.35 113.84-35.11 115.67-34.86 117.5-34.4 119.33-33.94 121.04-33.2 122.75-32.47 124.07-31.4 125.39-30.32 126.19-28.81 127-27.29 127-25.29ZM118.16-25.34L118.16-25.34Q118.16-26.76 117.13-27.71 116.11-28.66 114.52-29.27 112.93-29.88 110.96-30.2 108.98-30.52 107.05-30.64 105.12-30.76 103.51-30.76 101.9-30.76 100.97-30.76L100.97-30.76 98.63-30.76Q98.29-27.78 98.24-24.8 98.19-21.83 98.19-18.85L98.19-18.85Q100.14-18.85 102.07-18.9 104-18.95 105.95-19.09L105.95-19.09Q107.37-19.19 109.47-19.43 111.57-19.68 113.5-20.31 115.42-20.95 116.79-22.14 118.16-23.34 118.16-25.34ZM162.98-30.96Q162.79-31.05 161.69-31.1 160.59-31.15 159.05-31.18 157.51-31.2 155.73-31.23 153.95-31.25 152.36-31.25 150.77-31.25 149.58-31.25 148.38-31.25 147.99-31.25L147.99-31.25Q147.6-27.59 147.58-23.93 147.55-20.26 147.55-16.6L147.55-16.6Q147.55-14.26 147.5-11.96 147.45-9.67 147.45-7.32L147.45-7.32Q147.45-6.93 147.45-5.83 147.45-4.74 147.5-3.52 147.55-2.29 147.72-1.27 147.89-0.24 148.19 0L148.19 0 139.64 0Q139.98-0.29 140.15-1.88 140.32-3.47 140.45-5.71 140.57-7.96 140.59-10.6 140.62-13.23 140.62-15.63 140.62-18.02 140.59-19.85 140.57-21.68 140.57-22.41L140.57-22.41Q140.57-24.61 140.54-26.81 140.52-29 140.37-31.2L140.37-31.2Q137.2-31.2 134.07-31.18 130.95-31.15 127.78-31.1L127.78-31.1Q127.29-31.1 126.53-31.08 125.77-31.05 124.94-31.05 124.11-31.05 123.36-31.01 122.6-30.96 122.16-30.86L122.16-30.86 122.01-35.94 163.03-36.18 162.98-30.96ZM184.95-4.74L184.95-4.74Q186.76-4.74 188.81-5.18 190.86-5.62 192.57-6.62 194.28-7.62 195.4-9.16 196.52-10.69 196.52-12.89L196.52-12.89Q196.52-16.41 196.62-19.9 196.72-23.39 196.72-26.9L196.72-26.9Q196.72-27.54 196.72-28.83 196.72-30.13 196.67-31.49 196.62-32.86 196.52-34.08 196.43-35.3 196.23-35.89L196.23-35.89 205.12-35.89Q204.68-35.45 204.46-34.69 204.24-33.94 204.14-33.08 204.04-32.23 204.04-31.42 204.04-30.62 204.04-30.03L204.04-30.03Q204.04-25.73 204.19-21.56 204.34-17.38 204.34-13.09L204.34-13.09Q204.34-10.64 203.46-8.72 202.58-6.79 201.06-5.32 199.55-3.86 197.57-2.81 195.6-1.76 193.42-1.1 191.25-0.44 189.03-0.15 186.81 0.15 184.8 0.15L184.8 0.15Q181.73 0.15 178.38-0.56 175.04-1.27 172.26-2.83 169.47-4.39 167.64-6.91 165.81-9.42 165.81-13.09L165.81-13.09Q165.81-17.38 165.96-21.56 166.1-25.73 166.1-29.98L166.1-29.98Q166.1-30.57 166.1-31.4 166.1-32.23 166.01-33.08 165.91-33.94 165.69-34.69 165.47-35.45 165.03-35.89L165.03-35.89 174.21-35.89Q174.01-35.3 173.92-34.08 173.82-32.86 173.77-31.49 173.72-30.13 173.72-28.83 173.72-27.54 173.72-26.9L173.72-26.9Q173.72-23.39 173.82-19.9 173.92-16.41 173.92-12.89L173.92-12.89Q173.92-10.69 174.94-9.16 175.97-7.62 177.55-6.64 179.14-5.66 181.09-5.2 183.05-4.74 184.95-4.74ZM232.07-14.26L232.07-14.26Q232.51-13.87 233.83-12.65 235.14-11.43 236.88-9.86 238.61-8.3 240.54-6.59 242.47-4.88 244.15-3.44 245.84-2 247.06-1.03 248.28-0.05 248.62 0L248.62 0 238.51 0Q238.22-0.39 237.68-0.95 237.15-1.51 236.56-2.08 235.97-2.64 235.41-3.17 234.85-3.71 234.46-4.05L234.46-4.05Q232.07-6.4 229.65-8.62 227.23-10.84 224.69-13.04L224.69-13.04Q222.69-12.79 220.74-12.72 218.79-12.65 216.78-12.55L216.78-12.55Q216.74-11.23 216.74-9.94 216.74-8.64 216.74-7.32L216.74-7.32Q216.74-6.88 216.74-5.81 216.74-4.74 216.78-3.52 216.83-2.29 217-1.29 217.18-0.29 217.47 0L217.47 0 208.92 0Q209.22-0.29 209.41-1.88 209.61-3.47 209.7-5.71 209.8-7.96 209.85-10.57 209.9-13.18 209.9-15.58 209.9-17.97 209.88-19.82 209.85-21.68 209.85-22.41L209.85-22.41Q209.85-22.85 209.88-23.97 209.9-25.1 209.88-26.56 209.85-28.03 209.78-29.64 209.7-31.25 209.51-32.62 209.31-33.98 208.97-34.91 208.63-35.84 208.14-35.99L208.14-35.99Q208.29-35.99 209.09-35.99 209.9-35.99 211.05-35.99 212.19-35.99 213.49-35.99 214.78-35.99 215.93-35.99 217.08-35.99 217.86-35.96 218.64-35.94 218.79-35.94L218.79-35.94Q220.54-35.94 223.25-35.86 225.96-35.79 229.02-35.45 232.07-35.11 235.14-34.45 238.22-33.79 240.69-32.57 243.15-31.35 244.71-29.52 246.28-27.69 246.28-25.05L246.28-25.05Q246.28-22.51 244.81-20.68 243.35-18.85 241.17-17.58 239-16.31 236.54-15.5 234.07-14.7 232.07-14.26ZM237.44-25.15L237.44-25.15Q237.44-26.61 236.22-27.61 235-28.61 233.07-29.22 231.14-29.83 228.77-30.13 226.4-30.42 224.16-30.54 221.91-30.66 220.03-30.66 218.15-30.66 217.18-30.66L217.18-30.66Q216.93-27.93 216.86-25.22 216.78-22.51 216.78-19.78L216.78-19.78 216.78-18.46Q218.69-18.51 220.59-18.55 222.5-18.6 224.35-18.75L224.35-18.75Q225.28-18.8 226.6-18.95 227.92-19.09 229.38-19.36 230.85-19.63 232.29-20.07 233.73-20.51 234.88-21.19 236.02-21.88 236.73-22.85 237.44-23.83 237.44-25.15ZM284.85-0.1L249.4 0Q249.69-0.29 249.89-1.88 250.08-3.47 250.2-5.71 250.33-7.96 250.35-10.6 250.38-13.23 250.38-15.63 250.38-18.02 250.35-19.85 250.33-21.68 250.33-22.41L250.33-22.41Q250.33-22.85 250.33-23.93 250.33-25 250.3-26.32 250.28-27.64 250.23-29.13 250.18-30.62 250.06-31.88 249.94-33.15 249.74-34.11 249.55-35.06 249.25-35.4L249.25-35.4Q249.11-35.55 248.94-35.69 248.76-35.84 248.62-35.99L248.62-35.99 284.07-35.89 283.53-30.47Q283.29-30.57 282.33-30.62 281.38-30.66 280.01-30.71 278.65-30.76 277.08-30.79 275.52-30.81 274.13-30.81 272.74-30.81 271.66-30.81 270.59-30.81 270.2-30.81L270.2-30.81Q263.95-30.81 257.65-30.66L257.65-30.66Q257.41-28.22 257.36-25.81 257.31-23.39 257.31-20.9L257.31-20.9 279.77-21.14 279.72-15.92Q279.53-15.97 278.77-16.04 278.01-16.11 276.99-16.14 275.96-16.16 274.77-16.19 273.57-16.21 272.52-16.21 271.47-16.21 270.64-16.21 269.81-16.21 269.52-16.21L269.52-16.21Q263.41-16.21 257.26-16.06L257.26-16.06Q257.26-13.87 257.24-11.69 257.21-9.52 257.21-7.32L257.21-7.32 257.21-5.37Q260.68-5.22 264.12-5.22 267.56-5.22 271.03-5.22L271.03-5.22Q271.37-5.22 272.45-5.22 273.52-5.22 274.94-5.22 276.35-5.22 277.89-5.25 279.43-5.27 280.8-5.3 282.16-5.32 283.11-5.37 284.07-5.42 284.31-5.52L284.31-5.52 284.85-0.1ZM311.51-14.26L311.51-14.26Q311.95-13.87 313.26-12.65 314.58-11.43 316.32-9.86 318.05-8.3 319.98-6.59 321.91-4.88 323.59-3.44 325.28-2 326.5-1.03 327.72-0.05 328.06 0L328.06 0 317.95 0Q317.66-0.39 317.12-0.95 316.58-1.51 316-2.08 315.41-2.64 314.85-3.17 314.29-3.71 313.9-4.05L313.9-4.05Q311.51-6.4 309.09-8.62 306.67-10.84 304.13-13.04L304.13-13.04Q302.13-12.79 300.18-12.72 298.22-12.65 296.22-12.55L296.22-12.55Q296.17-11.23 296.17-9.94 296.17-8.64 296.17-7.32L296.17-7.32Q296.17-6.88 296.17-5.81 296.17-4.74 296.22-3.52 296.27-2.29 296.44-1.29 296.61-0.29 296.91 0L296.91 0 288.36 0Q288.65-0.29 288.85-1.88 289.05-3.47 289.14-5.71 289.24-7.96 289.29-10.57 289.34-13.18 289.34-15.58 289.34-17.97 289.31-19.82 289.29-21.68 289.29-22.41L289.29-22.41Q289.29-22.85 289.31-23.97 289.34-25.1 289.31-26.56 289.29-28.03 289.22-29.64 289.14-31.25 288.95-32.62 288.75-33.98 288.41-34.91 288.07-35.84 287.58-35.99L287.58-35.99Q287.73-35.99 288.53-35.99 289.34-35.99 290.49-35.99 291.63-35.99 292.93-35.99 294.22-35.99 295.37-35.99 296.52-35.99 297.3-35.96 298.08-35.94 298.22-35.94L298.22-35.94Q299.98-35.94 302.69-35.86 305.4-35.79 308.45-35.45 311.51-35.11 314.58-34.45 317.66-33.79 320.12-32.57 322.59-31.35 324.15-29.52 325.71-27.69 325.71-25.05L325.71-25.05Q325.71-22.51 324.25-20.68 322.79-18.85 320.61-17.58 318.44-16.31 315.97-15.5 313.51-14.7 311.51-14.26ZM316.88-25.15L316.88-25.15Q316.88-26.61 315.66-27.61 314.44-28.61 312.51-29.22 310.58-29.83 308.21-30.13 305.84-30.42 303.6-30.54 301.35-30.66 299.47-30.66 297.59-30.66 296.61-30.66L296.61-30.66Q296.37-27.93 296.3-25.22 296.22-22.51 296.22-19.78L296.22-19.78 296.22-18.46Q298.13-18.51 300.03-18.55 301.94-18.6 303.79-18.75L303.79-18.75Q304.72-18.8 306.04-18.95 307.36-19.09 308.82-19.36 310.29-19.63 311.73-20.07 313.17-20.51 314.31-21.19 315.46-21.88 316.17-22.85 316.88-23.83 316.88-25.15ZM351.98-14.26L351.98-14.26Q352.42-13.87 353.74-12.65 355.06-11.43 356.79-9.86 358.52-8.3 360.45-6.59 362.38-4.88 364.07-3.44 365.75-2 366.97-1.03 368.19-0.05 368.53 0L368.53 0 358.43 0Q358.13-0.39 357.6-0.95 357.06-1.51 356.47-2.08 355.89-2.64 355.33-3.17 354.77-3.71 354.37-4.05L354.37-4.05Q351.98-6.4 349.56-8.62 347.15-10.84 344.61-13.04L344.61-13.04Q342.61-12.79 340.65-12.72 338.7-12.65 336.7-12.55L336.7-12.55Q336.65-11.23 336.65-9.94 336.65-8.64 336.65-7.32L336.65-7.32Q336.65-6.88 336.65-5.81 336.65-4.74 336.7-3.52 336.75-2.29 336.92-1.29 337.09-0.29 337.38 0L337.38 0 328.84 0Q329.13-0.29 329.33-1.88 329.52-3.47 329.62-5.71 329.72-7.96 329.77-10.57 329.81-13.18 329.81-15.58 329.81-17.97 329.79-19.82 329.77-21.68 329.77-22.41L329.77-22.41Q329.77-22.85 329.79-23.97 329.81-25.1 329.79-26.56 329.77-28.03 329.69-29.64 329.62-31.25 329.42-32.62 329.23-33.98 328.89-34.91 328.54-35.84 328.06-35.99L328.06-35.99Q328.2-35.99 329.01-35.99 329.81-35.99 330.96-35.99 332.11-35.99 333.4-35.99 334.7-35.99 335.84-35.99 336.99-35.99 337.77-35.96 338.55-35.94 338.7-35.94L338.7-35.94Q340.46-35.94 343.17-35.86 345.88-35.79 348.93-35.45 351.98-35.11 355.06-34.45 358.13-33.79 360.6-32.57 363.07-31.35 364.63-29.52 366.19-27.69 366.19-25.05L366.19-25.05Q366.19-22.51 364.73-20.68 363.26-18.85 361.09-17.58 358.92-16.31 356.45-15.5 353.98-14.7 351.98-14.26ZM357.35-25.15L357.35-25.15Q357.35-26.61 356.13-27.61 354.91-28.61 352.98-29.22 351.05-29.83 348.69-30.13 346.32-30.42 344.07-30.54 341.83-30.66 339.95-30.66 338.07-30.66 337.09-30.66L337.09-30.66Q336.85-27.93 336.77-25.22 336.7-22.51 336.7-19.78L336.7-19.78 336.7-18.46Q338.6-18.51 340.51-18.55 342.41-18.6 344.27-18.75L344.27-18.75Q345.19-18.8 346.51-18.95 347.83-19.09 349.3-19.36 350.76-19.63 352.2-20.07 353.64-20.51 354.79-21.19 355.94-21.88 356.65-22.85 357.35-23.83 357.35-25.15Z" opacity="1" transform="matrix(1,0,0,1,0,0)" fill="#ffffff" class="wordmark-text-0" data-fill-palette-color="primary" id="text-0"></path></svg></g></svg></g><g transform="matrix(1,0,0,1,75.54432,48.35631852737038)"><svg viewBox="0 0 244.43135999999998 23.51755476631441" height="23.51755476631441" width="244.43135999999998"><g transform="matrix(1,0,0,1,8,0)"><svg width="228.43135999999998" viewBox="1.7999999523162842 -36.5 458.9100036621094 47.25" height="23.51755476631441" data-palette-color="#ffffff"><path d="M25.7-29.6L25.7-29.6 26.6-26.05Q26.55-26.05 26.45-26.05 26.35-26.05 26.25-26.05L26.25-26.05Q23.8-26.05 22.48-25.08 21.15-24.1 21.15-21.95L21.15-21.95 18.7-23.2Q18.7-25.15 19.6-26.6 20.5-28.05 22.05-28.83 23.6-29.6 25.45-29.6L25.45-29.6Q25.5-29.6 25.58-29.6 25.65-29.6 25.7-29.6ZM10.8-3.2L18.1-3.2Q21.65-3.2 23.65-1.58 25.65 0.05 25.65 2.75L25.65 2.75Q25.65 5.2 24.03 7 22.4 8.8 19.68 9.78 16.95 10.75 13.55 10.75L13.55 10.75Q7.65 10.75 4.73 8.75 1.8 6.75 1.8 3.95L1.8 3.95Q1.8 1.95 3.13 0.38 4.45-1.2 7.6-1.4L7.6-1.4 7.25-0.65Q5.55-1.1 4.38-2.18 3.2-3.25 3.2-5.3L3.2-5.3Q3.2-7.35 4.73-8.83 6.25-10.3 9.25-10.65L9.25-10.65 11.9-9.3 11.4-9.3Q8.95-9.05 7.93-8.08 6.9-7.1 6.9-5.95L6.9-5.95Q6.9-4.55 7.93-3.88 8.95-3.2 10.8-3.2L10.8-3.2ZM13.5 7.4L13.5 7.4Q16.4 7.4 18.28 6.8 20.15 6.2 21.05 5.25 21.95 4.3 21.95 3.2L21.95 3.2Q21.95 1.85 20.88 1.05 19.8 0.25 17 0.25L17 0.25 9.3 0.25Q7.7 0.25 6.6 1.07 5.5 1.9 5.5 3.35L5.5 3.35Q5.5 5.2 7.63 6.3 9.75 7.4 13.5 7.4ZM13.15-25.5L13.15-25.5Q16.15-25.5 18.48-24.43 20.8-23.35 22.1-21.45 23.4-19.55 23.4-17.05L23.4-17.05Q23.4-14.6 22.1-12.68 20.8-10.75 18.48-9.68 16.15-8.6 13.15-8.6L13.15-8.6Q8.2-8.6 5.55-10.98 2.9-13.35 2.9-17.05L2.9-17.05Q2.9-19.55 4.23-21.45 5.55-23.35 7.85-24.43 10.15-25.5 13.15-25.5ZM13.15-22.25L13.15-22.25Q10.55-22.25 8.8-20.83 7.05-19.4 7.05-17.05L7.05-17.05Q7.05-14.75 8.8-13.3 10.55-11.85 13.15-11.85L13.15-11.85Q15.75-11.85 17.5-13.3 19.25-14.75 19.25-17.05L19.25-17.05Q19.25-19.4 17.5-20.83 15.75-22.25 13.15-22.25ZM41.6-25.5L41.6-25.5Q45.15-25.5 47.87-23.95 50.6-22.4 52.15-19.48 53.7-16.55 53.7-12.5L53.7-12.5Q53.7-8.45 52.15-5.53 50.6-2.6 47.87-1.05 45.15 0.5 41.6 0.5L41.6 0.5Q38.1 0.5 35.35-1.05 32.6-2.6 31.05-5.53 29.5-8.45 29.5-12.5L29.5-12.5Q29.5-16.55 31.05-19.48 32.6-22.4 35.35-23.95 38.1-25.5 41.6-25.5ZM41.6-22.05L41.6-22.05Q39.05-22.05 37.25-20.9 35.45-19.75 34.47-17.63 33.5-15.5 33.5-12.5L33.5-12.5Q33.5-9.55 34.47-7.4 35.45-5.25 37.25-4.1 39.05-2.95 41.6-2.95L41.6-2.95Q44.15-2.95 45.95-4.1 47.75-5.25 48.72-7.4 49.7-9.55 49.7-12.5L49.7-12.5Q49.7-15.5 48.72-17.63 47.75-19.75 45.95-20.9 44.15-22.05 41.6-22.05ZM63.14-31L67.14-32.1 67.14-6.9Q67.14-5.05 68.19-4.15 69.25-3.25 70.89-3.25L70.89-3.25Q72.34-3.25 73.39-3.75 74.44-4.25 75.3-5.1L75.3-5.1 76.69-1.75Q75.55-0.7 73.97-0.1 72.39 0.5 70.34 0.5L70.34 0.5Q68.44 0.5 66.8-0.18 65.14-0.85 64.17-2.33 63.2-3.8 63.14-6.2L63.14-6.2 63.14-31ZM58.14-25L76.25-25 76.25-21.55 58.14-21.55 58.14-25ZM84.09-31L88.09-32.1 88.09-6.9Q88.09-5.05 89.14-4.15 90.19-3.25 91.84-3.25L91.84-3.25Q93.29-3.25 94.34-3.75 95.39-4.25 96.24-5.1L96.24-5.1 97.64-1.75Q96.49-0.7 94.92-0.1 93.34 0.5 91.29 0.5L91.29 0.5Q89.39 0.5 87.74-0.18 86.09-0.85 85.12-2.33 84.14-3.8 84.09-6.2L84.09-6.2 84.09-31ZM79.09-25L97.19-25 97.19-21.55 79.09-21.55 79.09-25ZM117.74-9.25L117.74-16.15Q117.74-18.95 116.24-20.48 114.74-22 111.99-22L111.99-22Q109.39-22 107.59-20.88 105.79-19.75 104.94-17.25L104.94-17.25 101.69-19.25Q102.69-22.05 105.39-23.78 108.09-25.5 112.09-25.5L112.09-25.5Q114.79-25.5 116.99-24.58 119.19-23.65 120.47-21.78 121.74-19.9 121.74-16.95L121.74-16.95 121.74-4.85Q121.74-3.05 123.64-3.05L123.64-3.05Q124.59-3.05 125.49-3.3L125.49-3.3 125.29-0.15Q124.29 0.35 122.69 0.35L122.69 0.35Q121.24 0.35 120.09-0.2 118.94-0.75 118.29-1.88 117.64-3 117.64-4.7L117.64-4.7 117.64-5.2 118.64-5.05Q118.04-3.1 116.59-1.88 115.14-0.65 113.34-0.08 111.54 0.5 109.79 0.5L109.79 0.5Q107.59 0.5 105.69-0.25 103.79-1 102.67-2.53 101.54-4.05 101.54-6.3L101.54-6.3Q101.54-9.1 103.42-10.93 105.29-12.75 108.64-13.4L108.64-13.4 118.54-15.35 118.54-12.05 110.49-10.4Q108.04-9.9 106.84-9 105.64-8.1 105.64-6.5L105.64-6.5Q105.64-4.95 106.87-3.98 108.09-3 110.34-3L110.34-3Q111.79-3 113.12-3.38 114.44-3.75 115.49-4.53 116.54-5.3 117.14-6.48 117.74-7.65 117.74-9.25L117.74-9.25ZM158.84-25.5L158.84-25.5Q161.44-25.5 163.41-24.7 165.39-23.9 166.84-22.4 168.29-20.9 169.19-18.85L169.19-18.85 165.39-17.05Q164.59-19.45 162.96-20.73 161.34-22 158.74-22L158.74-22Q156.24-22 154.44-20.88 152.64-19.75 151.69-17.63 150.74-15.5 150.74-12.5L150.74-12.5Q150.74-9.55 151.69-7.4 152.64-5.25 154.44-4.13 156.24-3 158.74-3L158.74-3Q160.69-3 162.11-3.6 163.54-4.2 164.46-5.35 165.39-6.5 165.74-8.15L165.74-8.15 169.44-6.85Q168.59-4.55 167.11-2.9 165.64-1.25 163.56-0.38 161.49 0.5 158.84 0.5L158.84 0.5Q155.34 0.5 152.59-1.05 149.84-2.6 148.28-5.53 146.74-8.45 146.74-12.5L146.74-12.5Q146.74-16.55 148.28-19.48 149.84-22.4 152.59-23.95 155.34-25.5 158.84-25.5ZM191.08-9.25L191.08-16.15Q191.08-18.95 189.58-20.48 188.08-22 185.33-22L185.33-22Q182.73-22 180.93-20.88 179.13-19.75 178.28-17.25L178.28-17.25 175.03-19.25Q176.03-22.05 178.73-23.78 181.43-25.5 185.43-25.5L185.43-25.5Q188.13-25.5 190.33-24.58 192.53-23.65 193.81-21.78 195.08-19.9 195.08-16.95L195.08-16.95 195.08-4.85Q195.08-3.05 196.98-3.05L196.98-3.05Q197.93-3.05 198.83-3.3L198.83-3.3 198.63-0.15Q197.63 0.35 196.03 0.35L196.03 0.35Q194.58 0.35 193.43-0.2 192.28-0.75 191.63-1.88 190.98-3 190.98-4.7L190.98-4.7 190.98-5.2 191.98-5.05Q191.38-3.1 189.93-1.88 188.48-0.65 186.68-0.08 184.88 0.5 183.13 0.5L183.13 0.5Q180.93 0.5 179.03-0.25 177.13-1 176.01-2.53 174.88-4.05 174.88-6.3L174.88-6.3Q174.88-9.1 176.76-10.93 178.63-12.75 181.98-13.4L181.98-13.4 191.88-15.35 191.88-12.05 183.83-10.4Q181.38-9.9 180.18-9 178.98-8.1 178.98-6.5L178.98-6.5Q178.98-4.95 180.21-3.98 181.43-3 183.68-3L183.68-3Q185.13-3 186.46-3.38 187.78-3.75 188.83-4.53 189.88-5.3 190.48-6.48 191.08-7.65 191.08-9.25L191.08-9.25ZM206.68-31L210.68-32.1 210.68-6.9Q210.68-5.05 211.73-4.15 212.78-3.25 214.43-3.25L214.43-3.25Q215.88-3.25 216.93-3.75 217.98-4.25 218.83-5.1L218.83-5.1 220.23-1.75Q219.08-0.7 217.51-0.1 215.93 0.5 213.88 0.5L213.88 0.5Q211.98 0.5 210.33-0.18 208.68-0.85 207.71-2.33 206.73-3.8 206.68-6.2L206.68-6.2 206.68-31ZM201.68-25L219.78-25 219.78-21.55 201.68-21.55 201.68-25ZM236.08-25.5L236.08-25.5Q238.68-25.5 240.65-24.7 242.63-23.9 244.08-22.4 245.53-20.9 246.43-18.85L246.43-18.85 242.63-17.05Q241.83-19.45 240.2-20.73 238.58-22 235.98-22L235.98-22Q233.48-22 231.68-20.88 229.88-19.75 228.93-17.63 227.98-15.5 227.98-12.5L227.98-12.5Q227.98-9.55 228.93-7.4 229.88-5.25 231.68-4.13 233.48-3 235.98-3L235.98-3Q237.93-3 239.35-3.6 240.78-4.2 241.7-5.35 242.63-6.5 242.98-8.15L242.98-8.15 246.68-6.85Q245.83-4.55 244.35-2.9 242.88-1.25 240.8-0.38 238.73 0.5 236.08 0.5L236.08 0.5Q232.58 0.5 229.83-1.05 227.08-2.6 225.53-5.53 223.98-8.45 223.98-12.5L223.98-12.5Q223.98-16.55 225.53-19.48 227.08-22.4 229.83-23.95 232.58-25.5 236.08-25.5ZM257.73 0L253.73 0 253.73-36.5 257.73-36.5 257.73-21.25Q259.03-23.5 261.18-24.5 263.33-25.5 265.88-25.5L265.88-25.5Q268.58-25.5 270.78-24.48 272.98-23.45 274.3-21.35 275.63-19.25 275.63-16L275.63-16 275.63 0 271.63 0 271.63-14.6Q271.63-18.75 269.85-20.38 268.08-22 265.48-22L265.48-22Q263.68-22 261.88-21.15 260.08-20.3 258.9-18.38 257.73-16.45 257.73-13.25L257.73-13.25 257.73 0ZM301.17-34.5L305.57-34.5 304.27-22.15 301.17-22.15 301.17-34.5ZM323.87 0.5L323.87 0.5Q320.32 0.5 317.54-1.05 314.77-2.6 313.22-5.53 311.67-8.45 311.67-12.5L311.67-12.5Q311.67-16.55 313.22-19.48 314.77-22.4 317.47-23.95 320.17-25.5 323.62-25.5L323.62-25.5Q327.12-25.5 329.59-24 332.07-22.5 333.37-19.93 334.67-17.35 334.67-14.15L334.67-14.15Q334.67-13.3 334.62-12.6 334.57-11.9 334.47-11.35L334.47-11.35 314.27-11.35 314.27-14.9 332.72-14.9 330.67-14.5Q330.67-18.1 328.69-20.05 326.72-22 323.52-22L323.52-22Q321.07-22 319.29-20.88 317.52-19.75 316.54-17.63 315.57-15.5 315.57-12.5L315.57-12.5Q315.57-9.55 316.57-7.4 317.57-5.25 319.39-4.13 321.22-3 323.77-3L323.77-3Q326.52-3 328.24-4.05 329.97-5.1 331.02-6.9L331.02-6.9 334.17-5.05Q333.22-3.35 331.74-2.1 330.27-0.85 328.29-0.18 326.32 0.5 323.87 0.5ZM346.27 0L342.27 0 342.27-25 345.77-25 346.02-21.1Q347.37-23.4 349.54-24.45 351.72-25.5 354.02-25.5L354.02-25.5Q356.67-25.5 359.02-24.3 361.37-23.1 362.62-20.6L362.62-20.6Q363.42-22.3 364.87-23.38 366.32-24.45 368.04-24.98 369.77-25.5 371.32-25.5L371.32-25.5Q373.72-25.5 375.89-24.5 378.07-23.5 379.47-21.4 380.87-19.3 380.87-16L380.87-16 380.87 0 376.87 0 376.87-15.6Q376.87-19 375.17-20.5 373.47-22 370.97-22L370.97-22Q369.02-22 367.32-21.05 365.62-20.1 364.59-18.25 363.57-16.4 363.57-13.7L363.57-13.7 363.57 0 359.57 0 359.57-15.6Q359.57-19 357.87-20.5 356.17-22 353.67-22L353.67-22Q352.02-22 350.29-21.13 348.57-20.25 347.42-18.35 346.27-16.45 346.27-13.35L346.27-13.35 346.27 0ZM421.56-9.25L421.56-16.15Q421.56-18.95 420.06-20.48 418.56-22 415.81-22L415.81-22Q413.21-22 411.41-20.88 409.61-19.75 408.76-17.25L408.76-17.25 405.51-19.25Q406.51-22.05 409.21-23.78 411.91-25.5 415.91-25.5L415.91-25.5Q418.61-25.5 420.81-24.58 423.01-23.65 424.29-21.78 425.56-19.9 425.56-16.95L425.56-16.95 425.56-4.85Q425.56-3.05 427.46-3.05L427.46-3.05Q428.41-3.05 429.31-3.3L429.31-3.3 429.11-0.15Q428.11 0.35 426.51 0.35L426.51 0.35Q425.06 0.35 423.91-0.2 422.76-0.75 422.11-1.88 421.46-3 421.46-4.7L421.46-4.7 421.46-5.2 422.46-5.05Q421.86-3.1 420.41-1.88 418.96-0.65 417.16-0.08 415.36 0.5 413.61 0.5L413.61 0.5Q411.41 0.5 409.51-0.25 407.61-1 406.49-2.53 405.36-4.05 405.36-6.3L405.36-6.3Q405.36-9.1 407.24-10.93 409.11-12.75 412.46-13.4L412.46-13.4 422.36-15.35 422.36-12.05 414.31-10.4Q411.86-9.9 410.66-9 409.46-8.1 409.46-6.5L409.46-6.5Q409.46-4.95 410.69-3.98 411.91-3 414.16-3L414.16-3Q415.61-3 416.94-3.38 418.26-3.75 419.31-4.53 420.36-5.3 420.96-6.48 421.56-7.65 421.56-9.25L421.56-9.25ZM435.06-36.5L439.06-36.5 439.06-6.35Q439.06-4.45 439.76-3.73 440.46-3 442.01-3L442.01-3Q443.01-3 443.66-3.15 444.31-3.3 445.41-3.7L445.41-3.7 444.76-0.2Q443.96 0.15 443.01 0.33 442.06 0.5 441.06 0.5L441.06 0.5Q438.01 0.5 436.53-1.15 435.06-2.8 435.06-6.2L435.06-6.2 435.06-36.5ZM450.36-36.5L454.36-36.5 454.36-6.35Q454.36-4.45 455.06-3.73 455.76-3 457.31-3L457.31-3Q458.31-3 458.96-3.15 459.61-3.3 460.71-3.7L460.71-3.7 460.06-0.2Q459.26 0.15 458.31 0.33 457.36 0.5 456.36 0.5L456.36 0.5Q453.31 0.5 451.83-1.15 450.36-2.8 450.36-6.2L450.36-6.2 450.36-36.5Z" opacity="1" transform="matrix(1,0,0,1,0,0)" fill="#ffffff" class="slogan-text-1" data-fill-palette-color="secondary" id="text-1"></path></svg></g></svg></g></svg></g></svg></g><g transform="matrix(1,0,0,1,109.03546872815406,0)"><svg viewBox="0 0 177.44906254369187 177.44906254369187" height="177.44906254369187" width="177.44906254369187"><g><svg></svg></g><g id="icon-0"><svg viewBox="0 0 177.44906254369187 177.44906254369187" height="177.44906254369187" width="177.44906254369187"><g><path d="M0 88.725c0-49.001 39.723-88.725 88.725-88.725 49.001 0 88.725 39.723 88.724 88.725 0 49.001-39.723 88.725-88.724 88.724-49.001 0-88.725-39.723-88.725-88.724zM88.725 173.921c47.053 0 85.197-38.144 85.196-85.196 0-47.053-38.144-85.197-85.196-85.197-47.053 0-85.197 38.144-85.197 85.197 0 47.053 38.144 85.197 85.197 85.196z" data-fill-palette-color="tertiary" fill="#ffffff" stroke="transparent"></path></g><g transform="matrix(1,0,0,1,35.13412138529745,57.06355735840764)"><svg viewBox="0 0 107.18081977309697 63.32194782687658" height="63.32194782687658" width="107.18081977309697"><g><svg xmlns="http://www.w3.org/2000/svg" xmlns:xlink="http://www.w3.org/1999/xlink" version="1.1" x="0" y="0" viewBox="6 24 88 51.99000549316406" enable-background="new 0 0 100 100" xml:space="preserve" height="63.32194782687658" width="107.18081977309697" class="icon-s-0" data-fill-palette-color="accent" id="s-0"><path fill="#ffffff" d="M48.583 47.887c-2.599 0-4.712 2.114-4.712 4.713s2.113 4.712 4.712 4.712 4.713-2.114 4.713-4.712S51.182 47.887 48.583 47.887zM48.583 55.312c-1.495 0-2.712-1.217-2.712-2.712 0-1.496 1.217-2.713 2.712-2.713 1.496 0 2.713 1.217 2.713 2.713C51.296 54.095 50.079 55.312 48.583 55.312z" data-fill-palette-color="accent"></path><path fill="#ffffff" d="M40.753 43.414c1.332-1.132-0.028-3.236-1.594-2.508-12.094 5.554-12.085 17.838 0 23.388 1.578 0.729 2.918-1.383 1.594-2.508C35.09 56.959 35.099 48.231 40.753 43.414zM37.243 60.933c-6.884-4.692-6.859-11.992 0-16.667C33.596 49.217 33.596 55.981 37.243 60.933z" data-fill-palette-color="accent"></path><path fill="#ffffff" d="M17.258 39.394c-1.527-3.158-3.592-6.023-6.144-8.525C9.213 29.003 6 30.339 6 33.006v38.4c0 2.662 3.207 4.006 5.117 2.134 2.586-2.537 4.67-5.448 6.201-8.657 1.736 1.428 2.764 2.073 4.993 2.073-0.298 0.093-0.604 0.223-0.9 0.431-3.551 2.484 0.877 8.603 7.036 8.603 3.197 0 4.895-1.444 8.392-3.692 0.129-0.083 0.266-0.129 0.432-0.116 11.228 0.539 24.042-5.762 29.871-17.555 0.681-1.379 0.695-2.968 0.038-4.359C58.469 31.813 33.574 26.29 17.258 39.394zM65.349 53.741c-5.476 11.08-17.577 16.965-27.98 16.443-0.568-0.025-1.129 0.122-1.611 0.431l-3.401 2.187c-5.842 3.757-11.785-2.385-9.798-3.776 0.305-0.213 5.782-1.426 6.145-1.51 1.491-0.345 1.243-2.56-0.292-2.56h-6.366c-1.574 0-2.499-0.792-3.936-2.021-0.761-0.65-1.918-0.391-2.334 0.524-1.452 3.222-3.49 6.134-6.058 8.654C9.076 72.742 8 72.297 8 71.406v-38.4c0-0.889 1.074-1.337 1.714-0.708 2.536 2.486 4.556 5.354 6.004 8.522 0.406 0.893 1.546 1.167 2.315 0.526 15.265-12.788 39.088-7.7 47.338 9.775C65.76 51.945 65.752 52.924 65.349 53.741z" data-fill-palette-color="accent"></path><path fill="#ffffff" d="M94 30c0-3.309-2.691-6-6-6s-6 2.691-6 6c0 2.967 2.167 5.431 5 5.91V64c0 4.136-3.364 7.5-7.5 7.5S72 68.136 72 63.906V63h6.125c0.875 0 1.33-1.052 0.725-1.689l-7.125-7.5C71.106 53.158 70 53.597 70 54.5c0 5.319 0 4.125 0 9.5 0 5.238 4.262 9.5 9.5 9.5S89 69.238 89 64V35.91C91.833 35.431 94 32.967 94 30zM72 61v-3.996L75.796 61H72zM88 34c-2.206 0-4-1.794-4-4s1.794-4 4-4 4 1.794 4 4S90.206 34 88 34z" data-fill-palette-color="accent"></path></svg></g></svg></g></svg></g></svg></g><g></g></svg></g><defs></defs></svg><rect width="365.1036822592746" height="247.2" fill="none" stroke="none" visibility="hidden"></rect></g></svg></g></svg>