
        <svg xmlns="http://www.w3.org/2000/svg" xmlns:xlink="http://www.w3.org/1999/xlink" version="1.1" width="3171.4285714285716" height="2104.0226122494714" viewBox="0 0 3171.4285714285716 2104.0226122494714">
			
			<g transform="scale(8.571428571428573) translate(10, 10)">
				<defs id="SvgjsDefs1624"><linearGradient id="SvgjsLinearGradient1631"><stop id="SvgjsStop1632" stop-color="#00ff8f" offset="0"/><stop id="SvgjsStop1633" stop-color="#00a1ff" offset="1"/></linearGradient><linearGradient id="SvgjsLinearGradient1634"><stop id="SvgjsStop1635" stop-color="#00ff8f" offset="0"/><stop id="SvgjsStop1636" stop-color="#00a1ff" offset="1"/></linearGradient></defs><g id="SvgjsG1625" featureKey="pxMwYC-0" transform="matrix(1.3355263471603394,0,0,1.3355263471603394,108,0)" fill="#000"><path xmlns="http://www.w3.org/2000/svg" d="M96.168,40.333h-3.033v0.798h3.433v0.479h-3.433v0.918h3.433v0.479h-3.433v0.918h3.433v0.479h-3.433v0.918h3.433v0.479  h-3.433v0.917h3.433v0.479h-3.433v0.798h3.033c2.116,0,3.832-1.715,3.832-3.832C100,42.048,98.284,40.333,96.168,40.333z"/><g xmlns="http://www.w3.org/2000/svg"><g><rect x="89.111" y="39.302" width="3.221" height="9.726"/></g></g><rect xmlns="http://www.w3.org/2000/svg" x="5.515" y="76.121" transform="matrix(-0.7071 -0.7072 0.7072 -0.7071 -36.76 141.987)" width="11.029" height="4.974"/><rect xmlns="http://www.w3.org/2000/svg" x="4.296" y="80.476" transform="matrix(-0.707 -0.7072 0.7072 -0.707 -44.1437 145.0437)" width="7.351" height="2.379"/><rect xmlns="http://www.w3.org/2000/svg" x="71.786" y="7.235" transform="matrix(0.7071 0.7071 -0.7071 0.7071 29.515 -51.8117)" width="11.028" height="4.974"/><rect xmlns="http://www.w3.org/2000/svg" x="76.681" y="5.476" transform="matrix(0.7069 0.7073 -0.7073 0.7069 28.2628 -54.8812)" width="7.352" height="2.378"/><rect xmlns="http://www.w3.org/2000/svg" x="73.094" y="74.814" transform="matrix(-0.7071 0.7071 -0.7071 -0.7071 188.8508 76.376)" width="11.028" height="4.973"/><rect xmlns="http://www.w3.org/2000/svg" x="77.989" y="79.168" transform="matrix(-0.7071 0.7071 -0.7071 -0.7071 196.2322 79.4328)" width="7.351" height="2.379"/><rect xmlns="http://www.w3.org/2000/svg" x="4.208" y="8.544" transform="matrix(0.7072 -0.7071 0.7071 0.7072 -4.9523 10.1035)" width="11.026" height="4.973"/><rect xmlns="http://www.w3.org/2000/svg" x="2.988" y="6.784" transform="matrix(0.7072 -0.707 0.707 0.7072 -3.6856 7.0451)" width="7.351" height="2.378"/><path xmlns="http://www.w3.org/2000/svg" d="M73.18,48.384l-4.304-3.34l-19.682-2.017c-0.328-1.794-1.594-3.349-3.407-3.973l5.015-18.422  c1.416,0.21,2.797-0.664,3.182-2.079c0.386-1.416-0.361-2.871-1.688-3.406l0.68-2.499l-0.657-0.179l-0.681,2.498  c-1.416-0.21-2.797,0.664-3.182,2.08c-0.385,1.416,0.363,2.869,1.689,3.406l-5.015,18.421c-0.149-0.03-0.299-0.051-0.448-0.068  l-2.739-12.437l-5.518-3.553l-1.92,6.273l5.91,11.228c-0.605,0.611-1.069,1.377-1.311,2.266c-0.719,2.646,0.758,5.373,3.313,6.252  l-0.868,3.188l0.657,0.18l0.868-3.188c2.359,0.479,4.719-0.742,5.717-2.882l19.265,4.109L73.18,48.384z M49.501,17.333  c0.258-0.95,1.238-1.51,2.187-1.251c0.95,0.259,1.511,1.237,1.252,2.187c-0.258,0.951-1.238,1.51-2.188,1.252  C49.803,19.261,49.243,18.283,49.501,17.333z M39.283,30.624c-1.027,0.376-2.165-0.152-2.54-1.18  c-0.376-1.026,0.152-2.164,1.179-2.539c1.027-0.376,2.164,0.151,2.539,1.178C40.837,29.111,40.31,30.249,39.283,30.624z   M47.146,44.774c-0.427,1.567-1.97,2.537-3.539,2.286c-0.111-0.018-0.223-0.04-0.333-0.071c-0.111-0.03-0.219-0.067-0.323-0.108  c-1.479-0.58-2.319-2.197-1.892-3.765c0.427-1.566,1.97-2.536,3.539-2.286c0.111,0.019,0.223,0.042,0.333,0.071  c0.111,0.031,0.219,0.067,0.323,0.108C46.734,41.589,47.574,43.207,47.146,44.774z"/><circle xmlns="http://www.w3.org/2000/svg" cx="44.165" cy="5.838" r="1.426"/><path xmlns="http://www.w3.org/2000/svg" d="M87.145,47.896c0.052-0.604,0.092-1.211,0.118-1.821c0.639-0.399,1.066-1.103,1.066-1.91c0-0.809-0.428-1.512-1.066-1.911  c-0.026-0.611-0.066-1.217-0.118-1.821c0.58-0.479,0.913-1.232,0.808-2.033c-0.105-0.798-0.617-1.438-1.3-1.751  c-0.105-0.604-0.226-1.205-0.357-1.8c0.51-0.55,0.737-1.338,0.529-2.116c-0.208-0.776-0.798-1.342-1.512-1.565  c-0.185-0.586-0.382-1.167-0.59-1.742c0.431-0.611,0.553-1.42,0.245-2.163C84.66,26.52,84,26.035,83.262,25.908  c-0.26-0.556-0.531-1.104-0.813-1.646c0.35-0.663,0.366-1.482-0.036-2.18c-0.402-0.697-1.121-1.092-1.871-1.12  c-0.329-0.516-0.67-1.021-1.02-1.521c0.262-0.704,0.173-1.522-0.318-2.163c-0.492-0.641-1.261-0.938-2.01-0.865  c-0.392-0.466-0.792-0.925-1.203-1.373c0.169-0.734-0.025-1.534-0.597-2.106c-0.571-0.57-1.371-0.764-2.104-0.595  c-0.448-0.411-0.906-0.811-1.372-1.204c0.072-0.749-0.226-1.518-0.867-2.01c-0.64-0.491-1.457-0.58-2.161-0.317  c-0.5-0.35-1.006-0.691-1.521-1.02c-0.029-0.75-0.425-1.469-1.122-1.872C65.55,5.515,64.73,5.531,64.067,5.88  c-0.542-0.282-1.091-0.553-1.646-0.812c-0.127-0.739-0.612-1.399-1.354-1.707c-0.742-0.308-1.551-0.185-2.162,0.246  c-0.575-0.209-1.157-0.405-1.744-0.59c-0.223-0.714-0.79-1.304-1.566-1.512c-0.776-0.208-1.564,0.021-2.114,0.529  c-0.595-0.131-1.195-0.252-1.8-0.358c-0.313-0.68-0.954-1.192-1.751-1.299c-0.801-0.105-1.553,0.227-2.031,0.808  c-0.604-0.052-1.211-0.091-1.822-0.118C45.676,0.428,44.973,0,44.165,0s-1.512,0.428-1.91,1.067  c-0.611,0.027-1.217,0.066-1.821,0.118c-0.479-0.581-1.232-0.913-2.033-0.808c-0.797,0.105-1.438,0.618-1.751,1.299  c-0.605,0.106-1.205,0.227-1.8,0.358c-0.55-0.509-1.337-0.738-2.115-0.529c-0.776,0.208-1.343,0.797-1.566,1.512  c-0.586,0.185-1.167,0.381-1.743,0.59c-0.611-0.431-1.419-0.552-2.162-0.246c-0.743,0.308-1.229,0.968-1.355,1.706  c-0.556,0.26-1.105,0.531-1.647,0.814c-0.663-0.35-1.482-0.367-2.179,0.035c-0.698,0.403-1.093,1.122-1.121,1.872  c-0.515,0.329-1.021,0.67-1.521,1.02c-0.704-0.262-1.521-0.173-2.161,0.317c-0.641,0.493-0.939,1.261-0.866,2.01  c-0.466,0.393-0.925,0.792-1.374,1.204c-0.733-0.169-1.533,0.025-2.104,0.596c-0.571,0.571-0.766,1.371-0.597,2.105  c-0.411,0.449-0.812,0.907-1.203,1.373c-0.749-0.073-1.517,0.225-2.008,0.865c-0.491,0.64-0.581,1.458-0.319,2.163  c-0.35,0.5-0.691,1.006-1.02,1.521c-0.75,0.029-1.469,0.424-1.872,1.121c-0.403,0.698-0.386,1.517-0.036,2.18  c-0.282,0.542-0.553,1.091-0.812,1.646c-0.739,0.126-1.398,0.612-1.706,1.355c-0.307,0.741-0.186,1.55,0.245,2.162  c-0.209,0.576-0.405,1.157-0.59,1.743c-0.714,0.223-1.304,0.791-1.512,1.566c-0.208,0.777,0.02,1.564,0.529,2.115  c-0.131,0.595-0.252,1.195-0.358,1.8c-0.681,0.313-1.193,0.954-1.298,1.75c-0.106,0.801,0.227,1.554,0.807,2.033  c-0.052,0.604-0.092,1.211-0.118,1.821C0.428,42.653,0,43.356,0,44.166c0,0.808,0.428,1.511,1.067,1.909  c0.026,0.611,0.066,1.218,0.118,1.822c-0.581,0.479-0.912,1.231-0.807,2.032c0.105,0.799,0.617,1.438,1.298,1.752  c0.106,0.604,0.227,1.203,0.358,1.8c-0.509,0.55-0.737,1.336-0.529,2.114c0.208,0.775,0.797,1.343,1.511,1.566  c0.185,0.587,0.382,1.168,0.59,1.742c-0.43,0.611-0.551,1.42-0.244,2.162c0.308,0.742,0.967,1.228,1.705,1.355  c0.26,0.555,0.531,1.104,0.813,1.646c-0.35,0.663-0.366,1.482,0.037,2.179c0.403,0.697,1.121,1.093,1.871,1.122  c0.329,0.514,0.67,1.021,1.021,1.521c-0.262,0.704-0.172,1.521,0.319,2.161c0.492,0.641,1.259,0.938,2.008,0.866  c0.392,0.466,0.792,0.925,1.203,1.373c-0.169,0.733,0.025,1.533,0.597,2.104c0.572,0.572,1.372,0.767,2.104,0.598  c0.449,0.411,0.908,0.812,1.374,1.203c-0.073,0.749,0.224,1.517,0.866,2.01c0.64,0.491,1.457,0.58,2.161,0.317  c0.5,0.35,1.006,0.691,1.52,1.021c0.029,0.75,0.423,1.468,1.122,1.871c0.697,0.402,1.517,0.386,2.18,0.036  c0.542,0.282,1.091,0.553,1.646,0.812c0.127,0.738,0.612,1.398,1.356,1.706c0.742,0.308,1.55,0.185,2.162-0.245  c0.575,0.209,1.156,0.406,1.742,0.591c0.222,0.715,0.789,1.305,1.566,1.512c0.778,0.208,1.565-0.021,2.115-0.529  c0.596,0.131,1.195,0.251,1.8,0.357c0.313,0.682,0.953,1.194,1.751,1.298c0.801,0.106,1.554-0.226,2.033-0.806  c0.604,0.051,1.211,0.091,1.821,0.118c0.399,0.638,1.103,1.066,1.911,1.066c0.808,0,1.512-0.429,1.91-1.066  c0.611-0.027,1.219-0.067,1.823-0.118c0.479,0.579,1.232,0.912,2.033,0.806c0.798-0.104,1.438-0.617,1.751-1.298  c0.604-0.106,1.203-0.228,1.798-0.357c0.55,0.509,1.338,0.737,2.115,0.529c0.776-0.208,1.344-0.798,1.566-1.513  c0.586-0.185,1.168-0.381,1.742-0.591c0.611,0.431,1.421,0.554,2.163,0.246c0.743-0.308,1.229-0.969,1.354-1.707  c0.556-0.26,1.104-0.529,1.646-0.812c0.663,0.35,1.482,0.366,2.181-0.036c0.697-0.403,1.092-1.122,1.12-1.872  c0.515-0.329,1.021-0.67,1.521-1.021c0.704,0.263,1.521,0.175,2.162-0.317s0.938-1.261,0.865-2.01  c0.466-0.392,0.925-0.792,1.373-1.203c0.732,0.169,1.533-0.025,2.104-0.597c0.571-0.57,0.766-1.37,0.597-2.104  c0.411-0.448,0.811-0.907,1.202-1.372c0.75,0.071,1.519-0.225,2.011-0.866c0.491-0.641,0.58-1.458,0.317-2.162  c0.35-0.499,0.691-1.006,1.021-1.521c0.749-0.029,1.468-0.425,1.871-1.122c0.402-0.696,0.385-1.516,0.035-2.178  c0.283-0.543,0.554-1.092,0.813-1.646c0.738-0.128,1.398-0.613,1.707-1.356c0.307-0.742,0.185-1.551-0.246-2.161  c0.209-0.576,0.405-1.156,0.59-1.742c0.714-0.224,1.305-0.791,1.513-1.566c0.208-0.778-0.021-1.565-0.529-2.115  c0.131-0.596,0.251-1.195,0.356-1.799c0.682-0.313,1.194-0.953,1.3-1.753C88.058,49.127,87.726,48.375,87.145,47.896z M49.317,3.736  l-5.152,5.153l-5.153-5.153H49.317z M44.165,77.322c-18.312,0-33.157-14.845-33.157-33.157c0-18.312,14.845-33.157,33.157-33.157  c18.312,0,33.157,14.845,33.157,33.157C77.322,62.477,62.477,77.322,44.165,77.322z"/></g><g id="SvgjsG1626" featureKey="Vx5QiU-0" transform="matrix(3.48744535446167,0,0,3.48744535446167,-2.9992018821100337,117.4938187437117)" fill="#000"><path d="M3.86 19.51 q-1.38 -0.77 -2.19 -2.09 t-0.81 -2.88 t0.81 -2.87 t2.18 -2.08 t2.99 -0.77 q1.74 0 3.15 0.83 t2.25 2.37 l-2.7 1.06 q-0.48 -0.82 -1.18 -1.23 t-1.52 -0.41 q-1.3 0 -2.15 0.88 t-0.85 2.22 t0.86 2.22 t2.16 0.88 q1.8 0 2.78 -1.6 l2.54 1 q-1.58 3.24 -5.32 3.24 q-1.62 0 -3 -0.77 z M22.72 18.9 q-0.38 0.52 -1.31 0.93 t-2.03 0.41 q-1.7 0 -2.95 -0.76 t-1.91 -2.07 t-0.66 -2.91 t0.66 -2.91 t1.91 -2.07 t2.95 -0.76 q1.14 0 2.01 0.39 t1.33 0.99 l0 -1.14 l2.96 0 l0 11 l-2.96 0 l0 -1.1 z M22.02 12.25 q-0.82 -0.87 -2.2 -0.87 q-1.4 0 -2.21 0.87 t-0.81 2.25 q0 1.34 0.83 2.22 t2.19 0.88 q1.4 0 2.21 -0.83 t0.81 -2.27 q0 -1.38 -0.82 -2.25 z M31.599999999999998 10.1 q0.38 -0.52 1.31 -0.93 t2.03 -0.41 q1.7 0 2.95 0.76 t1.91 2.07 t0.66 2.91 t-0.66 2.91 t-1.91 2.07 t-2.95 0.76 q-1.14 0 -2.01 -0.39 t-1.33 -0.99 l0 4.68 l-2.96 0 l0 -14.54 l2.96 0 l0 1.1 z M32.3 16.75 q0.82 0.87 2.2 0.87 q1.4 0 2.21 -0.87 t0.81 -2.25 q0 -1.34 -0.83 -2.22 t-2.19 -0.88 q-1.4 0 -2.21 0.83 t-0.81 2.27 q0 1.38 0.82 2.25 z M46.599999999999994 16.08 q0 0.7 0.24 1.17 t1.12 0.47 q0.4 0 0.76 -0.04 l0 2.52 q-0.72 0.08 -1.34 0.08 q-1.28 0 -2.07 -0.21 t-1.23 -0.81 t-0.44 -1.72 l0 -6.1 l-1.34 0 l0 -2.62 l1.34 0 l0 -2.94 l2.96 0 l0 2.94 l2.2 0 l0 2.62 l-2.2 0 l0 4.64 z M51.08 15.54 l0 -6.5 l3.02 0 l0 6.5 q0 1.18 0.59 1.69 t1.55 0.51 q0.84 0 1.5 -0.65 t0.6 -2.23 l0 -5.82 l3 0 l0 10.96 l-3 0 l0 -0.94 q-0.54 0.56 -1.31 0.87 t-1.63 0.31 q-4.32 0 -4.32 -4.7 z M69.5 11.87 q-0.86 0.21 -1.58 0.99 t-0.72 2.28 l0 4.86 l-2.98 0 l0 -11 l2.98 0 l0 1.46 q0.74 -0.98 1.81 -1.33 t1.95 -0.33 l0 2.92 q-0.6 -0.06 -1.46 0.15 z M75.23 19.74 q-1.37 -0.54 -2.35 -1.83 t-0.98 -3.37 t0.99 -3.36 t2.37 -1.82 t2.62 -0.54 q1.44 0 2.74 0.64 t2.13 1.88 t0.87 2.94 q0 0.52 -0.02 0.9 t-0.04 0.48 l-8.68 0 q0.24 1.16 1.2 1.58 t1.8 0.42 q1.08 0 1.72 -0.39 t1.1 -0.89 l2.32 1.34 q-1.88 2.56 -5.14 2.56 q-1.28 0 -2.65 -0.54 z M75.84 12.05 q-0.78 0.61 -0.88 1.49 l5.5 0 q-0.06 -0.52 -0.4 -1 t-0.91 -0.79 t-1.29 -0.31 q-1.24 0 -2.02 0.61 z M91.28000000000002 11.87 q-0.86 0.21 -1.58 0.99 t-0.72 2.28 l0 4.86 l-2.98 0 l0 -11 l2.98 0 l0 1.46 q0.74 -0.98 1.81 -1.33 t1.95 -0.33 l0 2.92 q-0.6 -0.06 -1.46 0.15 z M99.76000000000002 11.87 q-0.86 0.21 -1.58 0.99 t-0.72 2.28 l0 4.86 l-2.98 0 l0 -11 l2.98 0 l0 1.46 q0.74 -0.98 1.81 -1.33 t1.95 -0.33 l0 2.92 q-0.6 -0.06 -1.46 0.15 z"/></g><g id="SvgjsG1627" featureKey="aAUSXE-0" transform="matrix(0.9318857789039612,0,0,0.9318857789039612,27.06811491443368,206.552021800731)" fill="#000"><path d="M16.24 17.12 q-1.2 1.46 -2.91 2.32 t-3.77 0.86 q-1.78 0 -3.34 -0.65 t-2.72 -1.77 t-1.83 -2.63 t-0.67 -3.25 t0.67 -3.25 t1.83 -2.64 t2.72 -1.77 t3.34 -0.64 q2.06 0 3.77 0.86 t2.85 2.24 l-2.14 2.2 q-0.74 -1.06 -1.91 -1.71 t-2.57 -0.65 q-1.12 0 -2.11 0.43 t-1.73 1.16 t-1.17 1.7 t-0.43 2.07 q0 1.08 0.43 2.05 t1.17 1.7 t1.73 1.16 t2.11 0.43 q1.48 0 2.62 -0.67 t1.9 -1.77 z M45.56 20 l-3.4 0 l-1.48 -3.2 l-7.76 0 l-1.5 3.2 l-3.4 0 l7.56 -16 l2.42 0 z M39.46 14.219999999999999 l-2.66 -5.76 l-2.7 5.76 l5.36 0 z M69.94 9.38 q0 1.14 -0.43 2.13 t-1.17 1.72 t-1.74 1.14 t-2.12 0.41 l-2.64 0 l0 5.22 l-3.1 0 l0 -15.98 l5.74 0 q1.12 0 2.12 0.41 t1.74 1.13 t1.17 1.7 t0.43 2.12 z M66.86 9.34 q0 -0.62 -0.23 -1.16 t-0.63 -0.94 t-0.94 -0.64 t-1.16 -0.24 l-2.06 0 l0 6.04 l2.06 0 q0.62 0 1.16 -0.25 t0.94 -0.67 t0.63 -0.97 t0.23 -1.17 z M94.5 6.779999999999999 l-4.42 0 l0 13.22 l-3.14 0 l0 -13.22 l-4.42 0 l0 -2.76 l11.98 0 l0 2.76 z M121.84 17.12 q-1.2 1.46 -2.91 2.32 t-3.77 0.86 q-1.78 0 -3.34 -0.65 t-2.72 -1.77 t-1.83 -2.63 t-0.67 -3.25 t0.67 -3.25 t1.83 -2.64 t2.72 -1.77 t3.34 -0.64 q2.06 0 3.77 0.86 t2.85 2.24 l-2.14 2.2 q-0.74 -1.06 -1.91 -1.71 t-2.57 -0.65 q-1.12 0 -2.11 0.43 t-1.73 1.16 t-1.17 1.7 t-0.43 2.07 q0 1.08 0.43 2.05 t1.17 1.7 t1.73 1.16 t2.11 0.43 q1.48 0 2.62 -0.67 t1.9 -1.77 z M147.52 20 l-3.1 0 l0 -7.08 l-6.3 0 l0 7.08 l-3.1 0 l0 -15.98 l3.1 0 l0 6.34 l6.3 0 l0 -6.34 l3.1 0 l0 15.98 z M190.54 20 l-10.56 0 l0 -15.98 l10.56 0 l0 2.56 l-7.52 0 l0 3.82 l7.42 0 l0 2.5 l-7.42 0 l0 4.4 l7.52 0 l0 2.7 z M220.48 20 l-3.04 0 l0 -10.68 l-5.04 8.5 l-4.84 -8.58 l0 10.76 l-3.04 0 l0 -16 l3.5 0 l4.44 7.94 l4.64 -7.94 l3.38 0 l0 16 z M269.08 20 l-3.4 0 l-1.48 -3.2 l-7.76 0 l-1.5 3.2 l-3.4 0 l7.56 -16 l2.42 0 z M262.97999999999996 14.219999999999999 l-2.66 -5.76 l-2.7 5.76 l5.36 0 z M293.08 20 l-10.82 0 l0 -15.98 l3.16 0 l0 12.98 l7.66 0 l0 3 z M317.28 20 l-10.82 0 l0 -15.98 l3.16 0 l0 12.98 l7.66 0 l0 3 z"/></g>
			</g>
		</svg>
	